<?xml version="1.0" encoding="UTF-8"?>
<svg version="1.1" xmlns="http://www.w3.org/2000/svg" width="44" height="44" viewBox="32 -15 510 510">
<path d="M0 0 C1.69760916 -0.0083016 1.69760916 -0.0083016 3.42951345 -0.0167709 C7.23598538 -0.03042473 11.041807 -0.01538176 14.8482666 -0.00050354 C17.57140717 -0.00207776 20.29452383 -0.00963065 23.01765442 -0.01687622 C29.6546845 -0.0308214 36.29152454 -0.02324318 42.92854559 -0.00820064 C50.6547811 0.00864513 58.38096906 0.00545101 66.10721725 0.00170528 C79.89121877 -0.00417564 93.67512898 0.01000733 107.45910645 0.03465271 C120.83967512 0.05857418 134.22012179 0.06565728 147.60070801 0.05516052 C162.16519305 0.04375553 176.72962165 0.04181606 191.29410601 0.05625862 C192.84664948 0.05778449 194.39919296 0.05930484 195.95173645 0.06081963 C196.71565219 0.06157744 197.47956794 0.06233525 198.26663265 0.06311603 C203.65442275 0.0678621 209.04218769 0.06600514 214.42997742 0.06175423 C220.99436113 0.05683147 227.55862942 0.06279436 234.12298667 0.08264852 C237.47339803 0.09253173 240.82348626 0.09601039 244.17392921 0.08975601 C247.80274769 0.08383001 251.4310432 0.09625738 255.05981445 0.11352539 C256.12322729 0.10751535 257.18664012 0.1015053 258.28227758 0.09531313 C259.25267556 0.10375307 260.22307353 0.11219301 261.2228775 0.12088871 C262.06065058 0.12191784 262.89842366 0.12294697 263.76158381 0.12400728 C266.57067696 0.59112972 267.95890343 1.57700696 270.02990723 3.50120544 C271.77278566 10.54902391 269.07228461 16.99904904 266.11193848 23.28245544 C265.27921998 25.13392847 264.44670657 26.98549375 263.61437988 28.83714294 C263.18449768 29.77590271 262.75461548 30.71466248 262.31170654 31.68186951 C260.28214197 36.14592583 258.35387253 40.65277431 256.41662598 45.15745544 C255.64196619 46.94660126 254.86673355 48.73549914 254.09094238 50.52415466 C253.70287415 51.41971069 253.31480591 52.31526672 252.91497803 53.23796082 C252.102226 55.11328432 251.28918739 56.98848363 250.47589111 58.86357117 C246.33956206 68.40574789 242.21424936 77.94833713 238.30725098 87.58714294 C237.89315224 88.60575409 237.89315224 88.60575409 237.47068787 89.64494324 C236.22146448 92.72334345 234.98613344 95.8056274 233.77087402 98.89768982 C231.4976142 104.54849886 229.48803782 109.27243205 225.02990723 113.50120544 C222.05609515 114.50996605 219.16958755 114.68426787 216.04553223 114.81761169 C215.11096191 114.85950623 214.1763916 114.90140076 213.21350098 114.94456482 C212.24541504 114.98388123 211.2773291 115.02319763 210.27990723 115.06370544 C209.29635254 115.10688904 208.31279785 115.15007263 207.29943848 115.19456482 C204.87639447 115.30042597 202.45325183 115.40250715 200.02990723 115.50120544 C195.60127721 124.81536323 191.59158592 134.25463673 187.71087646 143.80635071 C185.97072146 148.08874421 184.2202702 152.36693217 182.47131348 156.64573669 C181.92746002 157.97732567 181.92746002 157.97732567 181.37261963 159.33581543 C176.62489943 170.95302979 171.81574914 182.54485291 166.99475098 194.13182068 C166.2967958 195.80962042 165.59887842 197.48743587 164.90100098 199.16526794 C164.56559296 199.97148087 164.23018494 200.77769379 163.88461304 201.6083374 C161.85767198 206.48736451 159.85755985 211.37640398 157.87756348 216.27464294 C157.41914063 217.4007196 156.96071777 218.52679626 156.48840332 219.68699646 C155.67445548 221.68934568 154.86806745 223.69479484 154.07141113 225.7040863 C150.52746353 234.38129441 150.52746353 234.38129441 147.02990723 236.50120544 C143.83205045 237.27969816 141.22549418 237.31434725 138.02990723 236.50120544 C135.04885358 234.47816309 132.89044419 231.94289782 130.59240723 229.18870544 C129.94916504 228.4597406 129.30592285 227.73077576 128.64318848 226.97972107 C127.35210785 225.51434456 126.07078854 224.04030345 124.79992676 222.55735779 C122.43739984 219.81291618 119.98718201 217.16106472 117.52990723 214.50120544 C114.25065674 210.87620202 111.01375936 207.21792002 107.80725098 203.52854919 C105.73631236 201.16631372 103.63477875 198.83324691 101.52990723 196.50120544 C98.26833311 192.88702872 95.04246353 189.24646271 91.85412598 185.56761169 C90.50223572 184.03624136 89.12591045 182.52636735 87.73693848 181.02854919 C86.94674316 180.17390076 86.15654785 179.31925232 85.34240723 178.43870544 C84.25379395 177.2766156 84.25379395 177.2766156 83.14318848 176.09104919 C78.81385121 170.78541037 76.42276248 165.43357715 74.73303223 158.84495544 C74.53002502 158.08460999 74.32701782 157.32426453 74.11785889 156.5408783 C73.40894159 153.86420266 72.71835393 151.18321755 72.02990723 148.50120544 C71.62300659 146.92919373 71.62300659 146.92919373 71.20788574 145.32542419 C69.35226775 138.14627787 67.52992569 130.95917792 65.72619629 123.76683044 C64.77423827 119.97864663 63.81225552 116.19309071 62.85021973 112.40745544 C62.23762269 109.97011065 61.62562212 107.53261586 61.01428223 105.09495544 C60.72889587 103.97810364 60.44350952 102.86125183 60.1494751 101.71055603 C58.55814626 95.30907136 57.45957051 89.08691845 57.02990723 82.50120544 C56.05150879 82.26143982 55.07311035 82.02167419 54.06506348 81.77464294 C49.54265195 80.47605021 45.58808923 78.36394412 41.46740723 76.12620544 C40.65674805 75.69066345 39.84608887 75.25512146 39.01086426 74.80638123 C37.26722307 73.86815986 35.52508043 72.9271492 33.78430176 71.98362732 C30.9384488 70.45198229 28.0776338 68.95147995 25.21350098 67.45433044 C23.27696566 66.42892573 21.34076083 65.40289659 19.40490723 64.37620544 C18.50570557 63.91037048 17.60650391 63.44453552 16.68005371 62.96458435 C5.22311562 56.82028351 -0.84371955 50.6339264 -5.22009277 38.31370544 C-5.63629883 37.20325867 -6.05250488 36.09281189 -6.48132324 34.94871521 C-7.29624747 32.77159389 -8.10183386 30.59094841 -8.89685059 28.40647888 C-9.78650755 25.99817182 -10.71841629 23.62553038 -11.71228027 21.25901794 C-14.12274729 15.47117341 -15.99905442 10.78930437 -14.97009277 4.50120544 C-11.51037464 -1.09658319 -5.87505828 -0.05306497 0 0 Z " fill="#5271FF" transform="translate(122.9700927734375,232.49879455566406)"/>
<path d="M0 0 C2.17895508 0.37011719 2.17895508 0.37011719 4 1 C3.76640778 1.6882486 3.53281555 2.37649719 3.29214478 3.08560181 C1.08518376 9.58821528 -1.12162107 16.09088173 -3.32825279 22.59360695 C-4.46256483 25.93629432 -5.59693614 29.27896156 -6.73144531 32.62158203 C-8.03728842 36.46901478 -9.34286937 40.31653644 -10.6484375 44.1640625 C-11.05371674 45.35802643 -11.45899597 46.55199036 -11.8765564 47.78213501 C-12.25679962 48.90284393 -12.63704285 50.02355286 -13.02880859 51.17822266 C-13.36190033 52.15973297 -13.69499207 53.14124329 -14.03817749 54.15249634 C-14.35557892 55.09217255 -14.67298035 56.03184875 -15 57 C-15.36082672 58.04964935 -15.72165344 59.09929871 -16.09341431 60.18075562 C-17.69183329 65.15142057 -17.99529438 69.86780178 -17 75 C-14.79669638 78.2463866 -11.9932894 80.49758872 -9 83 C-7.93106863 84.16301824 -6.88905679 85.35133754 -5.875 86.5625 C-2.3998535 90.60355338 1.23011719 94.48783147 4.875 98.375 C24 118.79287935 24 118.79287935 24 123 C23.1529248 123.03440186 22.30584961 123.06880371 21.43310547 123.10424805 C18.26731746 123.24404904 15.10348129 123.40493606 11.93945312 123.57983398 C10.57430403 123.65102967 9.20869829 123.71399518 7.84277344 123.76831055 C-0.94777608 123.78385396 -0.94777608 123.78385396 -8.70703125 127.2578125 C-10.86347177 129.83672433 -12.78752143 132.33353214 -14.5625 135.1875 C-18.08745621 140.66850127 -21.79867938 145.97488364 -25.625 151.25 C-26.16326416 151.99403076 -26.70152832 152.73806152 -27.25610352 153.50463867 C-30.78915104 158.37305382 -34.37681479 163.19834495 -38 168 C-35.1269465 168.9576845 -33.12139007 169.19535459 -30.125 169.25 C-29.28195313 169.27578125 -28.43890625 169.3015625 -27.5703125 169.328125 C-23.38578336 168.79392979 -20.88275681 167.01870881 -18.1484375 163.86328125 C-17.56320313 163.02152344 -16.97796875 162.17976562 -16.375 161.3125 C-15.70082031 160.35214844 -15.02664062 159.39179688 -14.33203125 158.40234375 C-13.55370862 157.26890073 -12.77645496 156.13472326 -12 155 C-11.02493697 153.58449943 -10.04966547 152.16914244 -9.07421875 150.75390625 C-7.57635979 148.57874402 -6.08096949 146.40209043 -4.59326172 144.2199707 C-1.10096947 139.10096947 -1.10096947 139.10096947 0 138 C9.13300542 136.46287255 18.601099 136.68182557 27.83203125 136.48242188 C34.19744226 136.30006145 39.90351796 135.87759484 46 134 C47.34067114 129.43403562 47.34067114 129.43403562 46.01171875 125.03515625 C42.76106899 120.61041736 38.90582045 116.79490302 34.98046875 112.97265625 C33.18671665 111.18598009 31.52216443 109.35850034 29.875 107.4375 C26.36272501 103.35063625 22.68678351 99.42859498 19 95.5 C10.31268741 86.23443852 10.31268741 86.23443852 6.671875 81.87109375 C4.9340195 79.86373311 4.9340195 79.86373311 2.515625 77.72265625 C1.66484375 76.90667969 0.8140625 76.09070313 -0.0625 75.25 C-0.85785156 74.53328125 -1.65320313 73.8165625 -2.47265625 73.078125 C-5.88663761 66.19777381 -1.77218498 56.62915222 0.56344604 49.67974854 C0.89055573 48.73871277 1.21766541 47.797677 1.5546875 46.828125 C1.89750763 45.82086365 2.24032776 44.81360229 2.59353638 43.77581787 C3.31357823 41.66688283 4.03814571 39.55948786 4.76708984 37.45361328 C5.87581284 34.24764961 6.96824123 31.03647078 8.05859375 27.82421875 C8.76467184 25.76269413 9.47167154 23.70148488 10.1796875 21.640625 C10.50274872 20.69149231 10.82580994 19.74235962 11.15866089 18.76446533 C13.07160691 13.26406205 15.27973443 8.15093259 18 3 C21.62890583 6.42694933 24.40252995 9.84447427 27.0625 14.0625 C27.43971191 14.65901367 27.81692383 15.25552734 28.20556641 15.87011719 C32.56537313 22.81279773 36.75139319 29.86267603 40.9453125 36.90625 C42.90915856 40.19722153 44.90098885 43.46736766 46.9296875 46.71875 C60.86947407 69.08452238 60.86947407 69.08452238 63.71484375 78.3203125 C65.53215069 80.6955161 67.64110903 81.10850078 70.49023438 81.6953125 C75.5646918 82.31135558 80.64910101 82.11876366 85.75 82 C87.97376245 81.94893772 90.19775495 81.90688703 92.421875 81.875 C93.88512207 81.84019531 93.88512207 81.84019531 95.37792969 81.8046875 C98.18574255 82.01383557 99.68420339 82.4170702 102 84 C103.33349609 85.75805664 103.33349609 85.75805664 104.5234375 87.91015625 C105.20768799 89.12795776 105.20768799 89.12795776 105.90576172 90.37036133 C106.63303467 91.70296997 106.63303467 91.70296997 107.375 93.0625 C108.15447998 94.45795044 108.15447998 94.45795044 108.94970703 95.8815918 C110.64269657 98.91584941 112.32119187 101.9578773 114 105 C116.28617904 109.10723889 118.58032771 113.21000153 120.875 117.3125 C121.45507812 118.35196777 122.03515625 119.39143555 122.6328125 120.46240234 C127.37509451 128.94027599 132.17906265 137.38425219 137.19335938 145.70483398 C139.71269541 149.90596082 142.09470862 153.94601862 143.8125 158.54296875 C145.35477841 162.47090657 146.67371116 165.2227984 150 168 C156.09029429 169.61979573 162.27951784 169.64341052 168.54296875 169.6640625 C172.33119691 169.74087654 173.80791326 169.89328515 177.19921875 171.77734375 C179.34927804 174.43110456 179.59677716 176.51789103 179.6640625 179.90234375 C178.5890694 183.29805725 177.07448492 185.29170184 174 187 C169.34926305 187.7753075 164.69429202 187.67061727 159.99316406 187.62818909 C158.53222406 187.63323401 157.07129023 187.64046242 155.61037064 187.64968723 C151.59495574 187.66864466 147.5801485 187.65635649 143.56474876 187.6389643 C139.23474259 187.62561178 134.90482658 187.64101976 130.5748291 187.65278625 C122.09205351 187.67118306 113.60950797 187.66263695 105.1267395 187.64469803 C98.23376844 187.63068284 91.34085992 187.6267769 84.44787598 187.6301403 C83.46751916 187.63061775 82.48716235 187.63109519 81.47709775 187.6315871 C79.48563606 187.63261341 77.49417439 187.63366877 75.50271273 187.63475286 C57.88587698 187.64332406 40.26915244 187.62663133 22.65234375 187.59692383 C5.55073373 187.56808542 -11.55071608 187.56100235 -28.65234375 187.57641602 C-47.26666823 187.59317006 -65.88091662 187.59722052 -84.49524307 187.57970566 C-86.47945403 187.57786123 -88.463665 187.57602651 -90.44787598 187.57420158 C-91.42419251 187.57328949 -92.40050905 187.5723774 -93.40641093 187.57143768 C-100.2925601 187.56582732 -107.17867217 187.56914411 -114.06481934 187.57574654 C-122.45466451 187.58347121 -130.84435187 187.57675844 -139.23416519 187.5515715 C-143.51631165 187.53905627 -147.79821216 187.53295431 -152.08036804 187.54411316 C-155.99857597 187.55413094 -159.91629272 187.54574905 -163.83444071 187.52253198 C-165.25360884 187.51735928 -166.67282074 187.51895863 -168.09196997 187.52792663 C-170.01802072 187.53908753 -171.94417158 187.52331757 -173.87017822 187.50615788 C-175.47631674 187.50437065 -175.47631674 187.50437065 -177.1149025 187.50254732 C-180.7187229 186.8748076 -182.40655865 185.53173744 -185 183 C-185.6640625 180.78125 -185.6640625 180.78125 -185.625 178.5 C-185.63789063 177.7471875 -185.65078125 176.994375 -185.6640625 176.21875 C-184.66085479 172.866856 -182.90951257 171.87478727 -180 170 C-176.49487305 169.54589844 -176.49487305 169.54589844 -172.51171875 169.609375 C-171.80852005 169.61503479 -171.10532135 169.62069458 -170.3808136 169.62652588 C-168.14899752 169.64880231 -165.91882539 169.69897627 -163.6875 169.75 C-162.16864309 169.77007657 -160.64976084 169.78832532 -159.13085938 169.8046875 C-155.42004455 169.84863643 -151.7101829 169.91760079 -148 170 C-147.8868042 168.97221436 -147.7736084 167.94442871 -147.65698242 166.88549805 C-147.02221586 163.13138808 -146.04709187 160.28733554 -144.48828125 156.83203125 C-143.97716797 155.69056641 -143.46605469 154.54910156 -142.93945312 153.37304688 C-142.13411133 151.61057617 -142.13411133 151.61057617 -141.3125 149.8125 C-140.53616211 148.0790332 -140.53616211 148.0790332 -139.74414062 146.31054688 C-138.18885466 142.8610272 -136.59929034 139.42930931 -135 136 C-134.24662354 134.33590088 -134.24662354 134.33590088 -133.47802734 132.63818359 C-128.51959697 122.07949145 -128.51959697 122.07949145 -123 119 C-119.3967405 118.13889967 -115.81156054 117.80869701 -112.125 117.5 C-96.13733848 115.73953259 -80.33436202 112.09935756 -68 101 C-65.45940724 97.4856781 -64.16718355 94.14998597 -63 90 C-62.58814453 88.9790625 -62.58814453 88.9790625 -62.16796875 87.9375 C-58.35839446 78.32911558 -57.16636702 67.00169595 -56.5625 56.75 C-56.04200229 50.42691671 -53.28127311 47.03541916 -48.625 42.9375 C-47.93277344 42.35613281 -47.24054688 41.77476563 -46.52734375 41.17578125 C-43.32415133 38.41816428 -40.26507424 35.52114973 -37.1875 32.625 C-32.21655821 27.96882513 -27.11665714 23.58161836 -21.796875 19.32421875 C-17.92645402 16.10787729 -14.2553349 12.69398596 -10.58959961 9.24780273 C-9.06909312 7.82138283 -7.5357218 6.4100046 -6 5 C-5.21810303 4.25459961 -5.21810303 4.25459961 -4.42041016 3.49414062 C-2.86328125 2.078125 -2.86328125 2.078125 0 0 Z " fill="#5271FF" transform="translate(253,32)"/>
</svg>
